<svg width="20" height="20" viewBox="0 0 20 20" fill="none" xmlns="http://www.w3.org/2000/svg">
<path d="M16.1667 8.58317V10.2498C16.1667 11.7969 15.5521 13.2807 14.4581 14.3746C13.3642 15.4686 11.8804 16.0832 10.3333 16.0832M10.3333 16.0832C8.78624 16.0832 7.30251 15.4686 6.20854 14.3746C5.11458 13.2807 4.5 11.7969 4.5 10.2498V8.58317M10.3333 16.0832V18.5832M10.3333 1.9165C9.67029 1.9165 9.03441 2.1799 8.56557 2.64874C8.09673 3.11758 7.83333 3.75346 7.83333 4.4165V10.2498C7.83333 10.9129 8.09673 11.5488 8.56557 12.0176C9.03441 12.4864 9.67029 12.7498 10.3333 12.7498C10.9964 12.7498 11.6323 12.4864 12.1011 12.0176C12.5699 11.5488 12.8333 10.9129 12.8333 10.2498V4.4165C12.8333 3.75346 12.5699 3.11758 12.1011 2.64874C11.6323 2.1799 10.9964 1.9165 10.3333 1.9165Z" stroke="#161414" stroke-width="1.8" stroke-linecap="round" stroke-linejoin="round"/>
</svg>
