<svg width="20" height="20" viewBox="0 0 20 20" fill="none" xmlns="http://www.w3.org/2000/svg">
<path d="M12.7773 2.25C13.5274 2.25 14.2676 2.49946 14.8311 2.97266C15.3983 3.44911 15.7499 4.12601 15.75 4.86621V15.1338C15.7499 15.874 15.3983 16.5509 14.8311 17.0273C14.2676 17.5005 13.5274 17.75 12.7773 17.75H7.22266C6.47263 17.75 5.73236 17.5005 5.16895 17.0273C4.60174 16.5509 4.25014 15.874 4.25 15.1338V4.86621C4.25014 4.12601 4.60174 3.44911 5.16895 2.97266C5.73236 2.49946 6.47263 2.25 7.22266 2.25H12.7773ZM7.22266 3.75C6.79402 3.75 6.40287 3.89425 6.13281 4.12109C5.86702 4.34449 5.75014 4.61667 5.75 4.86621V15.1338C5.75014 15.3833 5.86702 15.6555 6.13281 15.8789C6.40287 16.1058 6.79402 16.25 7.22266 16.25H12.7773C13.206 16.25 13.5971 16.1058 13.8672 15.8789C14.133 15.6555 14.2499 15.3833 14.25 15.1338V4.86621C14.2499 4.61667 14.133 4.34449 13.8672 4.12109C13.5971 3.89425 13.206 3.75 12.7773 3.75H7.22266ZM11 13.25C11.4142 13.25 11.75 13.5858 11.75 14C11.75 14.4142 11.4142 14.75 11 14.75H9C8.58579 14.75 8.25 14.4142 8.25 14C8.25 13.5858 8.58579 13.25 9 13.25H11Z" fill="black" fill-opacity="0.88"/>
</svg>
