<svg width="20" height="20" viewBox="0 0 20 20" fill="none" xmlns="http://www.w3.org/2000/svg">
<path d="M2 10.2498H4.5M4.5 10.2498C4.5 13.4715 7.11167 16.0832 10.3333 16.0832M4.5 10.2498C4.5 7.02818 7.11167 4.4165 10.3333 4.4165M16.1667 10.2498H18.6667M16.1667 10.2498C16.1667 13.4715 13.555 16.0832 10.3333 16.0832M16.1667 10.2498C16.1667 7.02818 13.555 4.4165 10.3333 4.4165M10.3333 1.9165V4.4165M10.3333 16.0832V18.5832M12.8333 10.2498C12.8333 11.6305 11.714 12.7498 10.3333 12.7498C8.95262 12.7498 7.83333 11.6305 7.83333 10.2498C7.83333 8.86913 8.95262 7.74984 10.3333 7.74984C11.714 7.74984 12.8333 8.86913 12.8333 10.2498Z" stroke="#161414" stroke-width="1.8" stroke-linecap="round" stroke-linejoin="round"/>
</svg>
