<svg width="20" height="20" viewBox="0 0 20 20" fill="none" xmlns="http://www.w3.org/2000/svg">
<path fill-rule="evenodd" clip-rule="evenodd" d="M3.75017 3.6001C3.69558 3.6001 3.64235 3.62187 3.60242 3.66203C3.56235 3.70233 3.53906 3.75791 3.53906 3.81676V12.4834C3.53906 12.5423 3.56235 12.5979 3.60242 12.6382C3.64235 12.6783 3.69558 12.7001 3.75017 12.7001H6.6724C7.08661 12.7001 7.4224 13.0359 7.4224 13.4501V15.5209L9.98272 12.9236C10.1237 12.7806 10.3161 12.7001 10.5168 12.7001H16.2446C16.2992 12.7001 16.3524 12.6783 16.3924 12.6382C16.4324 12.5979 16.4557 12.5423 16.4557 12.4834V3.81676C16.4557 3.75791 16.4324 3.70233 16.3924 3.66203C16.3524 3.62187 16.2992 3.6001 16.2446 3.6001H3.75017ZM2.53871 2.60443C2.85927 2.28202 3.29496 2.1001 3.75017 2.1001H16.2446C16.6998 2.1001 17.1355 2.28202 17.4561 2.60443C17.7765 2.92669 17.9557 3.36286 17.9557 3.81676V12.4834C17.9557 12.9373 17.7765 13.3735 17.4561 13.6958C17.1355 14.0182 16.6998 14.2001 16.2446 14.2001H10.8307L7.37773 17.7029C6.84405 18.2443 5.9224 17.8664 5.9224 17.1062V14.2001H3.75017C3.29496 14.2001 2.85927 14.0182 2.53871 13.6958C2.2183 13.3735 2.03906 12.9373 2.03906 12.4834V3.81676C2.03906 3.36287 2.2183 2.92669 2.53871 2.60443ZM4.92239 7.2001C4.92239 6.78589 5.25818 6.4501 5.67239 6.4501H14.3224C14.7366 6.4501 15.0724 6.78589 15.0724 7.2001C15.0724 7.61431 14.7366 7.9501 14.3224 7.9501H5.67239C5.25818 7.9501 4.92239 7.61431 4.92239 7.2001ZM4.92239 10.1001C4.92239 9.68589 5.25818 9.3501 5.67239 9.3501H12.4002C12.8144 9.3501 13.1502 9.68589 13.1502 10.1001C13.1502 10.5143 12.8144 10.8501 12.4002 10.8501H5.67239C5.25818 10.8501 4.92239 10.5143 4.92239 10.1001Z" fill="black"/>
</svg>
