<svg width="20" height="20" viewBox="0 0 20 20" fill="none" xmlns="http://www.w3.org/2000/svg">
<path d="M15.0791 1.92188C15.4929 1.92234 15.8291 2.25795 15.8291 2.67188V15.0791C15.8286 15.4926 15.4926 15.8286 15.0791 15.8291H2.67188C2.25795 15.8291 1.92234 15.4929 1.92188 15.0791V2.67188C1.92188 2.25766 2.25766 1.92188 2.67188 1.92188H15.0791ZM5.13379 14.3291H14.3291V11.0234L11.1611 8.75L5.13379 14.3291ZM3.42188 13.8691L10.3252 7.48047L10.3555 7.4541C10.5726 7.27372 10.8457 7.17373 11.1279 7.1709L11.2334 7.1748C11.4653 7.19254 11.6871 7.27719 11.874 7.41699L11.875 7.41602L14.3291 9.17676V3.42188H3.42188V13.8691ZM6.25 3.83008C6.8918 3.83008 7.50806 4.08528 7.96191 4.53906C8.41553 4.99282 8.66983 5.60839 8.66992 6.25C8.66992 6.89186 8.41578 7.50805 7.96191 7.96191C7.50805 8.41578 6.89186 8.66992 6.25 8.66992C5.60839 8.66983 4.99282 8.41553 4.53906 7.96191C4.08528 7.50806 3.83008 6.8918 3.83008 6.25C3.83017 5.60826 4.08528 4.99285 4.53906 4.53906C4.99285 4.08528 5.60826 3.83017 6.25 3.83008ZM6.25 5.33008C6.00609 5.33017 5.77209 5.42713 5.59961 5.59961C5.42713 5.77209 5.33017 6.00609 5.33008 6.25C5.33008 6.49388 5.42726 6.72786 5.59961 6.90039C5.77209 7.07287 6.00609 7.16983 6.25 7.16992C6.49404 7.16992 6.72783 7.07295 6.90039 6.90039C7.07295 6.72783 7.16992 6.49404 7.16992 6.25C7.16983 6.00609 7.07287 5.77209 6.90039 5.59961C6.72786 5.42726 6.49388 5.33008 6.25 5.33008Z" fill="black"/>
<path d="M4 17.5H15.5C16.6046 17.5 17.5 16.6046 17.5 15.5V4.5" stroke="black" stroke-width="1.5" stroke-linecap="round"/>
</svg>
